<?xml version="1.0" standalone="yes"?>
<!-- SVG graphic -->
<svg xmlns='http://www.w3.org/2000/svg' xmlns:xlink='http://www.w3.org/1999/xlink'
width="70px" height="70px" preserveAspectRatio="xMinYMin meet" viewBox="0 0 70 70" version="1.1">
<rect x="5" y="0" width="2.5" height="2.5" fill="rgb(15,0,239)" tooltip="enable"><title>(1,0 168)</title></rect><rect x="10" y="0" width="2.5" height="2.5" fill="rgb(30,0,224)" tooltip="enable"><title>(2,0 318)</title></rect><rect x="15" y="0" width="2.5" height="2.5" fill="rgb(229,0,25)" tooltip="enable"><title>(3,0 2422)</title></rect><rect x="20" y="0" width="2.5" height="2.5" fill="rgb(141,0,113)" tooltip="enable"><title>(4,0 1495)</title></rect><rect x="25" y="0" width="2.5" height="2.5" fill="rgb(105,0,149)" tooltip="enable"><title>(5,0 1114)</title></rect><rect x="30" y="0" width="2.5" height="2.5" fill="rgb(88,0,166)" tooltip="enable"><title>(6,0 935)</title></rect><rect x="35" y="0" width="2.5" height="2.5" fill="rgb(57,0,197)" tooltip="enable"><title>(7,0 607)</title></rect><rect x="40" y="0" width="2.5" height="2.5" fill="rgb(45,0,209)" tooltip="enable"><title>(8,0 481)</title></rect><rect x="45" y="0" width="2.5" height="2.5" fill="rgb(48,0,206)" tooltip="enable"><title>(9,0 514)</title></rect><rect x="50" y="0" width="2.5" height="2.5" fill="rgb(39,0,215)" tooltip="enable"><title>(10,0 412)</title></rect><rect x="10" y="5" width="2.5" height="2.5" fill="rgb(59,0,195)" tooltip="enable"><title>(2,1 627)</title></rect><rect x="15" y="5" width="2.5" height="2.5" fill="rgb(37,0,217)" tooltip="enable"><title>(3,1 395)</title></rect><rect x="20" y="5" width="2.5" height="2.5" fill="rgb(40,0,214)" tooltip="enable"><title>(4,1 422)</title></rect><rect x="25" y="5" width="2.5" height="2.5" fill="rgb(38,0,216)" tooltip="enable"><title>(5,1 411)</title></rect><rect x="30" y="5" width="2.5" height="2.5" fill="rgb(41,0,213)" tooltip="enable"><title>(6,1 442)</title></rect><rect x="35" y="5" width="2.5" height="2.5" fill="rgb(40,0,214)" tooltip="enable"><title>(7,1 432)</title></rect><rect x="40" y="5" width="2.5" height="2.5" fill="rgb(45,0,209)" tooltip="enable"><title>(8,1 476)</title></rect><rect x="45" y="5" width="2.5" height="2.5" fill="rgb(67,0,187)" tooltip="enable"><title>(9,1 711)</title></rect><rect x="50" y="5" width="2.5" height="2.5" fill="rgb(95,0,159)" tooltip="enable"><title>(10,1 1009)</title></rect><rect x="15" y="10" width="2.5" height="2.5" fill="rgb(35,0,219)" tooltip="enable"><title>(3,2 369)</title></rect><rect x="20" y="10" width="2.5" height="2.5" fill="rgb(35,0,219)" tooltip="enable"><title>(4,2 370)</title></rect><rect x="25" y="10" width="2.5" height="2.5" fill="rgb(30,0,224)" tooltip="enable"><title>(5,2 323)</title></rect><rect x="30" y="10" width="2.5" height="2.5" fill="rgb(34,0,220)" tooltip="enable"><title>(6,2 363)</title></rect><rect x="35" y="10" width="2.5" height="2.5" fill="rgb(32,0,222)" tooltip="enable"><title>(7,2 338)</title></rect><rect x="40" y="10" width="2.5" height="2.5" fill="rgb(38,0,216)" tooltip="enable"><title>(8,2 404)</title></rect><rect x="45" y="10" width="2.5" height="2.5" fill="rgb(69,0,185)" tooltip="enable"><title>(9,2 737)</title></rect><rect x="50" y="10" width="2.5" height="2.5" fill="rgb(83,0,171)" tooltip="enable"><title>(10,2 881)</title></rect><rect x="20" y="15" width="2.5" height="2.5" fill="rgb(255,0,0)" tooltip="enable"><title>(4,3 2688)</title></rect><rect x="25" y="15" width="2.5" height="2.5" fill="rgb(182,0,72)" tooltip="enable"><title>(5,3 1921)</title></rect><rect x="30" y="15" width="2.5" height="2.5" fill="rgb(140,0,114)" tooltip="enable"><title>(6,3 1476)</title></rect><rect x="35" y="15" width="2.5" height="2.5" fill="rgb(90,0,164)" tooltip="enable"><title>(7,3 959)</title></rect><rect x="40" y="15" width="2.5" height="2.5" fill="rgb(73,0,181)" tooltip="enable"><title>(8,3 776)</title></rect><rect x="45" y="15" width="2.5" height="2.5" fill="rgb(69,0,185)" tooltip="enable"><title>(9,3 728)</title></rect><rect x="50" y="15" width="2.5" height="2.5" fill="rgb(48,0,206)" tooltip="enable"><title>(10,3 511)</title></rect><rect x="25" y="20" width="2.5" height="2.5" fill="rgb(247,0,7)" tooltip="enable"><title>(5,4 2608)</title></rect><rect x="30" y="20" width="2.5" height="2.5" fill="rgb(181,0,73)" tooltip="enable"><title>(6,4 1918)</title></rect><rect x="35" y="20" width="2.5" height="2.5" fill="rgb(115,0,139)" tooltip="enable"><title>(7,4 1217)</title></rect><rect x="40" y="20" width="2.5" height="2.5" fill="rgb(90,0,164)" tooltip="enable"><title>(8,4 952)</title></rect><rect x="45" y="20" width="2.5" height="2.5" fill="rgb(81,0,173)" tooltip="enable"><title>(9,4 854)</title></rect><rect x="50" y="20" width="2.5" height="2.5" fill="rgb(55,0,199)" tooltip="enable"><title>(10,4 587)</title></rect><rect x="30" y="25" width="2.5" height="2.5" fill="rgb(215,0,39)" tooltip="enable"><title>(6,5 2271)</title></rect><rect x="35" y="25" width="2.5" height="2.5" fill="rgb(135,0,119)" tooltip="enable"><title>(7,5 1432)</title></rect><rect x="40" y="25" width="2.5" height="2.5" fill="rgb(114,0,140)" tooltip="enable"><title>(8,5 1202)</title></rect><rect x="45" y="25" width="2.5" height="2.5" fill="rgb(90,0,164)" tooltip="enable"><title>(9,5 955)</title></rect><rect x="50" y="25" width="2.5" height="2.5" fill="rgb(57,0,197)" tooltip="enable"><title>(10,5 602)</title></rect><rect x="35" y="30" width="2.5" height="2.5" fill="rgb(185,0,69)" tooltip="enable"><title>(7,6 1952)</title></rect><rect x="40" y="30" width="2.5" height="2.5" fill="rgb(136,0,118)" tooltip="enable"><title>(8,6 1435)</title></rect><rect x="45" y="30" width="2.5" height="2.5" fill="rgb(117,0,137)" tooltip="enable"><title>(9,6 1240)</title></rect><rect x="50" y="30" width="2.5" height="2.5" fill="rgb(71,0,183)" tooltip="enable"><title>(10,6 754)</title></rect><rect x="40" y="35" width="2.5" height="2.5" fill="rgb(184,0,70)" tooltip="enable"><title>(8,7 1943)</title></rect><rect x="45" y="35" width="2.5" height="2.5" fill="rgb(135,0,119)" tooltip="enable"><title>(9,7 1431)</title></rect><rect x="50" y="35" width="2.5" height="2.5" fill="rgb(87,0,167)" tooltip="enable"><title>(10,7 920)</title></rect><rect x="45" y="40" width="2.5" height="2.5" fill="rgb(187,0,67)" tooltip="enable"><title>(9,8 1974)</title></rect><rect x="50" y="40" width="2.5" height="2.5" fill="rgb(118,0,136)" tooltip="enable"><title>(10,8 1244)</title></rect><rect x="50" y="45" width="2.5" height="2.5" fill="rgb(181,0,73)" tooltip="enable"><title>(10,9 1911)</title></rect><text x="60" y="5" font-size="5" fill="black">0</text>
<text x="60" y="50" font-size="5" fill="black">11</text>
<polyline points="60,10,60,45" stroke="black" stroke-width="1" fill="none"/>
<text x="5" y="60" font-size="5" fill="black">0</text>
<text x="50" y="60" font-size="5" fill="black">11</text>
<polyline points="10,60,45,60" stroke="black" stroke-width="1" fill="none"/>
</svg>