<?xml version="1.0" encoding="UTF-8" standalone="no"?>
<!DOCTYPE svg PUBLIC "-//W3C//DTD SVG 1.1//EN"
 "http://www.w3.org/Graphics/SVG/1.1/DTD/svg11.dtd">
<!-- Generated by graphviz version 2.43.0 (0)
 -->
<!-- Title: 1 Pages: 1 -->
<svg width="273pt" height="268pt"
 viewBox="0.00 0.00 273.14 268.10" xmlns="http://www.w3.org/2000/svg" xmlns:xlink="http://www.w3.org/1999/xlink">
<g id="graph0" class="graph" transform="scale(1 1) rotate(0) translate(4 264.1)">
<title>1</title>
<polygon fill="white" stroke="transparent" points="-4,4 -4,-264.1 269.14,-264.1 269.14,4 -4,4"/>
<!-- n9 -->
<g id="node1" class="node">
<title>n9</title>
<ellipse fill="none" stroke="black" cx="19.5" cy="-146.54" rx="19.5" ry="19.5"/>
<text text-anchor="middle" x="19.5" y="-142.84" font-family="Times,serif" font-size="14.00">n9</text>
</g>
<!-- n10 -->
<g id="node2" class="node">
<title>n10</title>
<ellipse fill="none" stroke="black" cx="240.82" cy="-175.28" rx="24.1" ry="24.1"/>
<text text-anchor="middle" x="240.82" y="-171.58" font-family="Times,serif" font-size="14.00">n10</text>
</g>
<!-- n9&#45;&#45;n10 -->
<g id="edge1" class="edge">
<title>n9&#45;&#45;n10</title>
<path fill="none" stroke="black" d="M39.14,-149.09C79.76,-154.37 172.9,-166.46 216.93,-172.18"/>
</g>
<!-- n8 -->
<g id="node3" class="node">
<title>n8</title>
<ellipse fill="none" stroke="black" cx="122.29" cy="-19.5" rx="19.5" ry="19.5"/>
<text text-anchor="middle" x="122.29" y="-15.8" font-family="Times,serif" font-size="14.00">n8</text>
</g>
<!-- n8&#45;&#45;n9 -->
<g id="edge3" class="edge">
<title>n8&#45;&#45;n9</title>
<path fill="none" stroke="black" d="M109.69,-35.08C89.85,-59.59 51.59,-106.89 31.89,-131.23"/>
</g>
<!-- n8&#45;&#45;n10 -->
<g id="edge2" class="edge">
<title>n8&#45;&#45;n10</title>
<path fill="none" stroke="black" d="M134.31,-35.29C156.21,-64.07 202.51,-124.93 226.2,-156.06"/>
</g>
<!-- n7 -->
<g id="node4" class="node">
<title>n7</title>
<ellipse fill="none" stroke="black" cx="122.88" cy="-240.6" rx="19.5" ry="19.5"/>
<text text-anchor="middle" x="122.88" y="-236.9" font-family="Times,serif" font-size="14.00">n7</text>
</g>
<!-- n7&#45;&#45;n9 -->
<g id="edge5" class="edge">
<title>n7&#45;&#45;n9</title>
<path fill="none" stroke="black" d="M108.07,-227.13C88.31,-209.14 53.53,-177.5 33.95,-159.69"/>
</g>
<!-- n7&#45;&#45;n10 -->
<g id="edge4" class="edge">
<title>n7&#45;&#45;n10</title>
<path fill="none" stroke="black" d="M140.03,-231.11C161.12,-219.43 196.89,-199.61 219.66,-187"/>
</g>
<!-- n7&#45;&#45;n8 -->
<g id="edge6" class="edge">
<title>n7&#45;&#45;n8</title>
<path fill="none" stroke="black" d="M122.83,-220.98C122.72,-179.02 122.46,-81 122.35,-39.08"/>
</g>
<!-- n6 -->
<g id="node5" class="node">
<title>n6</title>
<ellipse fill="none" stroke="black" cx="189.75" cy="-226.83" rx="19.5" ry="19.5"/>
<text text-anchor="middle" x="189.75" y="-223.13" font-family="Times,serif" font-size="14.00">n6</text>
</g>
<!-- n6&#45;&#45;n9 -->
<g id="edge8" class="edge">
<title>n6&#45;&#45;n9</title>
<path fill="none" stroke="black" d="M171.85,-218.39C139.07,-202.93 69.76,-170.24 37.16,-154.87"/>
</g>
<!-- n6&#45;&#45;n10 -->
<g id="edge7" class="edge">
<title>n6&#45;&#45;n10</title>
<path fill="none" stroke="black" d="M203.71,-212.74C209.85,-206.54 217.13,-199.2 223.61,-192.66"/>
</g>
<!-- n6&#45;&#45;n8 -->
<g id="edge9" class="edge">
<title>n6&#45;&#45;n8</title>
<path fill="none" stroke="black" d="M183.65,-208.06C170.8,-168.59 141.13,-77.38 128.34,-38.07"/>
</g>
<!-- n6&#45;&#45;n7 -->
<g id="edge10" class="edge">
<title>n6&#45;&#45;n7</title>
<path fill="none" stroke="black" d="M170.41,-230.81C161.62,-232.63 151.23,-234.76 142.41,-236.58"/>
</g>
<!-- n5 -->
<g id="node6" class="node">
<title>n5</title>
<ellipse fill="none" stroke="black" cx="61.53" cy="-211.15" rx="19.5" ry="19.5"/>
<text text-anchor="middle" x="61.53" y="-207.45" font-family="Times,serif" font-size="14.00">n5</text>
</g>
<!-- n5&#45;&#45;n9 -->
<g id="edge12" class="edge">
<title>n5&#45;&#45;n9</title>
<path fill="none" stroke="black" d="M50.7,-194.51C44.38,-184.79 36.43,-172.57 30.14,-162.9"/>
</g>
<!-- n5&#45;&#45;n10 -->
<g id="edge11" class="edge">
<title>n5&#45;&#45;n10</title>
<path fill="none" stroke="black" d="M80.72,-207.31C113.69,-200.71 181.02,-187.25 216.96,-180.06"/>
</g>
<!-- n5&#45;&#45;n8 -->
<g id="edge13" class="edge">
<title>n5&#45;&#45;n8</title>
<path fill="none" stroke="black" d="M67.47,-192.42C79.08,-155.78 104.7,-75 116.33,-38.3"/>
</g>
<!-- n5&#45;&#45;n7 -->
<g id="edge14" class="edge">
<title>n5&#45;&#45;n7</title>
<path fill="none" stroke="black" d="M79.28,-219.67C87.34,-223.54 96.88,-228.12 104.97,-232"/>
</g>
<!-- n5&#45;&#45;n6 -->
<g id="edge15" class="edge">
<title>n5&#45;&#45;n6</title>
<path fill="none" stroke="black" d="M81,-213.53C105.1,-216.48 145.91,-221.47 170.09,-224.43"/>
</g>
<!-- n4 -->
<g id="node7" class="node">
<title>n4</title>
<ellipse fill="none" stroke="black" cx="47.85" cy="-52.41" rx="19.5" ry="19.5"/>
<text text-anchor="middle" x="47.85" y="-48.71" font-family="Times,serif" font-size="14.00">n4</text>
</g>
<!-- n4&#45;&#45;n9 -->
<g id="edge17" class="edge">
<title>n4&#45;&#45;n9</title>
<path fill="none" stroke="black" d="M42.11,-71.46C37.16,-87.9 30.05,-111.5 25.13,-127.84"/>
</g>
<!-- n4&#45;&#45;n10 -->
<g id="edge16" class="edge">
<title>n4&#45;&#45;n10</title>
<path fill="none" stroke="black" d="M64.3,-62.88C99.49,-85.28 181.95,-137.79 220.41,-162.28"/>
</g>
<!-- n4&#45;&#45;n8 -->
<g id="edge18" class="edge">
<title>n4&#45;&#45;n8</title>
<path fill="none" stroke="black" d="M65.87,-44.44C77.58,-39.27 92.77,-32.55 104.44,-27.39"/>
</g>
<!-- n4&#45;&#45;n7 -->
<g id="edge19" class="edge">
<title>n4&#45;&#45;n7</title>
<path fill="none" stroke="black" d="M55.18,-70.79C69.56,-106.87 101.32,-186.51 115.63,-222.42"/>
</g>
<!-- n4&#45;&#45;n6 -->
<g id="edge20" class="edge">
<title>n4&#45;&#45;n6</title>
<path fill="none" stroke="black" d="M60.2,-67.58C87.03,-100.57 150.43,-178.5 177.33,-211.57"/>
</g>
<!-- n4&#45;&#45;n5 -->
<g id="edge21" class="edge">
<title>n4&#45;&#45;n5</title>
<path fill="none" stroke="black" d="M49.53,-71.87C52.15,-102.34 57.2,-160.96 59.84,-191.52"/>
</g>
<!-- n3 -->
<g id="node8" class="node">
<title>n3</title>
<ellipse fill="none" stroke="black" cx="245.64" cy="-95.28" rx="19.5" ry="19.5"/>
<text text-anchor="middle" x="245.64" y="-91.58" font-family="Times,serif" font-size="14.00">n3</text>
</g>
<!-- n3&#45;&#45;n9 -->
<g id="edge23" class="edge">
<title>n3&#45;&#45;n9</title>
<path fill="none" stroke="black" d="M226.36,-99.65C183.63,-109.34 81.41,-132.51 38.73,-142.18"/>
</g>
<!-- n3&#45;&#45;n10 -->
<g id="edge22" class="edge">
<title>n3&#45;&#45;n10</title>
<path fill="none" stroke="black" d="M244.45,-115.06C243.79,-125.98 242.97,-139.63 242.28,-151.17"/>
</g>
<!-- n3&#45;&#45;n8 -->
<g id="edge24" class="edge">
<title>n3&#45;&#45;n8</title>
<path fill="none" stroke="black" d="M229,-85.06C205.46,-70.6 162.67,-44.31 139.06,-29.8"/>
</g>
<!-- n3&#45;&#45;n7 -->
<g id="edge25" class="edge">
<title>n3&#45;&#45;n7</title>
<path fill="none" stroke="black" d="M232.96,-110.29C209.44,-138.13 159.28,-197.51 135.67,-225.46"/>
</g>
<!-- n3&#45;&#45;n6 -->
<g id="edge26" class="edge">
<title>n3&#45;&#45;n6</title>
<path fill="none" stroke="black" d="M237.98,-113.3C227.34,-138.35 208.18,-183.45 197.49,-208.61"/>
</g>
<!-- n3&#45;&#45;n5 -->
<g id="edge27" class="edge">
<title>n3&#45;&#45;n5</title>
<path fill="none" stroke="black" d="M228.98,-105.77C194.01,-127.77 113.33,-178.55 78.29,-200.6"/>
</g>
<!-- n3&#45;&#45;n4 -->
<g id="edge28" class="edge">
<title>n3&#45;&#45;n4</title>
<path fill="none" stroke="black" d="M226.31,-91.09C188.4,-82.87 104.7,-64.73 66.96,-56.55"/>
</g>
<!-- n2 -->
<g id="node9" class="node">
<title>n2</title>
<ellipse fill="none" stroke="black" cx="84.86" cy="-114.06" rx="19.5" ry="19.5"/>
<text text-anchor="middle" x="84.86" y="-110.36" font-family="Times,serif" font-size="14.00">n2</text>
</g>
<!-- n2&#45;&#45;n9 -->
<g id="edge30" class="edge">
<title>n2&#45;&#45;n9</title>
<path fill="none" stroke="black" d="M67.34,-122.77C57.96,-127.43 46.45,-133.15 37.06,-137.81"/>
</g>
<!-- n2&#45;&#45;n10 -->
<g id="edge29" class="edge">
<title>n2&#45;&#45;n10</title>
<path fill="none" stroke="black" d="M103.05,-121.21C131.66,-132.44 187.09,-154.19 218.22,-166.41"/>
</g>
<!-- n2&#45;&#45;n8 -->
<g id="edge31" class="edge">
<title>n2&#45;&#45;n8</title>
<path fill="none" stroke="black" d="M92.07,-95.83C98.7,-79.09 108.48,-54.4 115.1,-37.68"/>
</g>
<!-- n2&#45;&#45;n7 -->
<g id="edge32" class="edge">
<title>n2&#45;&#45;n7</title>
<path fill="none" stroke="black" d="M90.55,-133.01C97.72,-156.86 109.97,-197.61 117.15,-221.53"/>
</g>
<!-- n2&#45;&#45;n6 -->
<g id="edge33" class="edge">
<title>n2&#45;&#45;n6</title>
<path fill="none" stroke="black" d="M98.14,-128.35C118.21,-149.92 156.05,-190.59 176.24,-212.31"/>
</g>
<!-- n2&#45;&#45;n5 -->
<g id="edge34" class="edge">
<title>n2&#45;&#45;n5</title>
<path fill="none" stroke="black" d="M80.25,-133.24C76.16,-150.27 70.21,-175 66.13,-192.01"/>
</g>
<!-- n2&#45;&#45;n4 -->
<g id="edge35" class="edge">
<title>n2&#45;&#45;n4</title>
<path fill="none" stroke="black" d="M74.74,-97.22C69.52,-88.52 63.17,-77.93 57.95,-69.23"/>
</g>
<!-- n2&#45;&#45;n3 -->
<g id="edge36" class="edge">
<title>n2&#45;&#45;n3</title>
<path fill="none" stroke="black" d="M104.25,-111.8C135.15,-108.19 195.23,-101.17 226.18,-97.55"/>
</g>
<!-- n1 -->
<g id="node10" class="node">
<title>n1</title>
<ellipse fill="none" stroke="black" cx="195.03" cy="-34.29" rx="19.5" ry="19.5"/>
<text text-anchor="middle" x="195.03" y="-30.59" font-family="Times,serif" font-size="14.00">n1</text>
</g>
<!-- n1&#45;&#45;n9 -->
<g id="edge38" class="edge">
<title>n1&#45;&#45;n9</title>
<path fill="none" stroke="black" d="M178.52,-44.85C145.06,-66.25 69.62,-114.49 36.1,-135.93"/>
</g>
<!-- n1&#45;&#45;n10 -->
<g id="edge37" class="edge">
<title>n1&#45;&#45;n10</title>
<path fill="none" stroke="black" d="M201.11,-53.02C209.43,-78.63 224.36,-124.58 233.35,-152.27"/>
</g>
<!-- n1&#45;&#45;n8 -->
<g id="edge39" class="edge">
<title>n1&#45;&#45;n8</title>
<path fill="none" stroke="black" d="M175.92,-30.41C165.31,-28.25 152.16,-25.57 141.53,-23.41"/>
</g>
<!-- n1&#45;&#45;n7 -->
<g id="edge40" class="edge">
<title>n1&#45;&#45;n7</title>
<path fill="none" stroke="black" d="M188.5,-52.97C174.77,-92.24 143.03,-183.01 129.35,-222.12"/>
</g>
<!-- n1&#45;&#45;n6 -->
<g id="edge41" class="edge">
<title>n1&#45;&#45;n6</title>
<path fill="none" stroke="black" d="M194.5,-53.81C193.49,-90.72 191.3,-170.31 190.29,-207.26"/>
</g>
<!-- n1&#45;&#45;n5 -->
<g id="edge42" class="edge">
<title>n1&#45;&#45;n5</title>
<path fill="none" stroke="black" d="M183.19,-49.99C157.85,-83.55 98.66,-161.96 73.35,-195.49"/>
</g>
<!-- n1&#45;&#45;n4 -->
<g id="edge43" class="edge">
<title>n1&#45;&#45;n4</title>
<path fill="none" stroke="black" d="M175.49,-36.7C147.34,-40.16 95.67,-46.52 67.48,-49.99"/>
</g>
<!-- n1&#45;&#45;n3 -->
<g id="edge44" class="edge">
<title>n1&#45;&#45;n3</title>
<path fill="none" stroke="black" d="M207.54,-49.37C215.27,-58.68 225.16,-70.6 232.92,-79.96"/>
</g>
<!-- n1&#45;&#45;n2 -->
<g id="edge45" class="edge">
<title>n1&#45;&#45;n2</title>
<path fill="none" stroke="black" d="M178.78,-46.06C157.83,-61.23 121.63,-87.44 100.82,-102.5"/>
</g>
<!-- n0 -->
<g id="node11" class="node">
<title>n0</title>
<ellipse fill="none" stroke="black" cx="167.61" cy="-125.37" rx="19.5" ry="19.5"/>
<text text-anchor="middle" x="167.61" y="-121.67" font-family="Times,serif" font-size="14.00">n0</text>
</g>
<!-- n0&#45;&#45;n9 -->
<g id="edge47" class="edge">
<title>n0&#45;&#45;n9</title>
<path fill="none" stroke="black" d="M148.24,-128.14C119.86,-132.19 67.25,-139.71 38.87,-143.77"/>
</g>
<!-- n0&#45;&#45;n10 -->
<g id="edge46" class="edge">
<title>n0&#45;&#45;n10</title>
<path fill="none" stroke="black" d="M183.86,-136.45C194.73,-143.86 209.11,-153.66 220.7,-161.56"/>
</g>
<!-- n0&#45;&#45;n8 -->
<g id="edge48" class="edge">
<title>n0&#45;&#45;n8</title>
<path fill="none" stroke="black" d="M159.92,-107.41C151.59,-87.94 138.36,-57.05 130.02,-37.55"/>
</g>
<!-- n0&#45;&#45;n7 -->
<g id="edge49" class="edge">
<title>n0&#45;&#45;n7</title>
<path fill="none" stroke="black" d="M160.52,-143.63C152.19,-165.08 138.46,-200.47 130.09,-222.05"/>
</g>
<!-- n0&#45;&#45;n6 -->
<g id="edge50" class="edge">
<title>n0&#45;&#45;n6</title>
<path fill="none" stroke="black" d="M171.77,-144.45C175.71,-162.48 181.58,-189.38 185.53,-207.49"/>
</g>
<!-- n0&#45;&#45;n5 -->
<g id="edge51" class="edge">
<title>n0&#45;&#45;n5</title>
<path fill="none" stroke="black" d="M152.41,-137.66C132.24,-153.97 96.85,-182.59 76.7,-198.88"/>
</g>
<!-- n0&#45;&#45;n4 -->
<g id="edge52" class="edge">
<title>n0&#45;&#45;n4</title>
<path fill="none" stroke="black" d="M150.95,-115.22C128.2,-101.36 87.63,-76.64 64.75,-62.7"/>
</g>
<!-- n0&#45;&#45;n3 -->
<g id="edge53" class="edge">
<title>n0&#45;&#45;n3</title>
<path fill="none" stroke="black" d="M186.1,-118.24C198.54,-113.44 214.87,-107.15 227.28,-102.36"/>
</g>
<!-- n0&#45;&#45;n2 -->
<g id="edge54" class="edge">
<title>n0&#45;&#45;n2</title>
<path fill="none" stroke="black" d="M148,-122.69C134.8,-120.89 117.49,-118.52 104.33,-116.72"/>
</g>
<!-- n0&#45;&#45;n1 -->
<g id="edge55" class="edge">
<title>n0&#45;&#45;n1</title>
<path fill="none" stroke="black" d="M173.29,-106.5C178,-90.87 184.65,-68.76 189.36,-53.14"/>
</g>
</g>
</svg>
