<?xml version="1.0" standalone="yes"?>
<!-- SVG graphic -->
<svg xmlns='http://www.w3.org/2000/svg' xmlns:xlink='http://www.w3.org/1999/xlink'
 version="1.1">
<rect x="0" y="1.52588e-05" width="6" height="200" stroke="black" stroke-width="1" fill="blue" tooltip="enable"><title>(0,9735)</title></rect><rect x="6" y="117.843" width="6" height="82.1572" stroke="black" stroke-width="1" fill="blue" tooltip="enable"><title>(0.0393326,3999)</title></rect><rect x="12" y="134.463" width="6" height="65.5367" stroke="black" stroke-width="1" fill="blue" tooltip="enable"><title>(0.0786651,3190)</title></rect><rect x="18" y="143.852" width="6" height="56.1479" stroke="black" stroke-width="1" fill="blue" tooltip="enable"><title>(0.117998,2733)</title></rect><rect x="24" y="147.92" width="6" height="52.0801" stroke="black" stroke-width="1" fill="blue" tooltip="enable"><title>(0.15733,2535)</title></rect><rect x="30" y="154.206" width="6" height="45.7935" stroke="black" stroke-width="1" fill="blue" tooltip="enable"><title>(0.196663,2229)</title></rect><rect x="36" y="156.199" width="6" height="43.8007" stroke="black" stroke-width="1" fill="blue" tooltip="enable"><title>(0.235995,2132)</title></rect><rect x="42" y="159.692" width="6" height="40.3082" stroke="black" stroke-width="1" fill="blue" tooltip="enable"><title>(0.275328,1962)</title></rect><rect x="48" y="164.355" width="6" height="35.6446" stroke="black" stroke-width="1" fill="blue" tooltip="enable"><title>(0.31466,1735)</title></rect><rect x="54" y="169.122" width="6" height="30.8783" stroke="black" stroke-width="1" fill="blue" tooltip="enable"><title>(0.353993,1503)</title></rect><rect x="60" y="171.813" width="6" height="28.187" stroke="black" stroke-width="1" fill="blue" tooltip="enable"><title>(0.393326,1372)</title></rect><rect x="66" y="174.607" width="6" height="25.3929" stroke="black" stroke-width="1" fill="blue" tooltip="enable"><title>(0.432658,1236)</title></rect><rect x="72" y="177.935" width="6" height="22.0647" stroke="black" stroke-width="1" fill="blue" tooltip="enable"><title>(0.471991,1074)</title></rect><rect x="78" y="179.887" width="6" height="20.113" stroke="black" stroke-width="1" fill="blue" tooltip="enable"><title>(0.511323,979)</title></rect><rect x="84" y="180.832" width="6" height="19.1679" stroke="black" stroke-width="1" fill="blue" tooltip="enable"><title>(0.550656,933)</title></rect><rect x="90" y="184.263" width="6" height="15.737" stroke="black" stroke-width="1" fill="blue" tooltip="enable"><title>(0.589988,766)</title></rect><rect x="96" y="186.194" width="6" height="13.8059" stroke="black" stroke-width="1" fill="blue" tooltip="enable"><title>(0.629321,672)</title></rect><rect x="102" y="187.18" width="6" height="12.8197" stroke="black" stroke-width="1" fill="blue" tooltip="enable"><title>(0.668653,624)</title></rect><rect x="108" y="188.372" width="6" height="11.6281" stroke="black" stroke-width="1" fill="blue" tooltip="enable"><title>(0.707986,566)</title></rect><rect x="114" y="188.639" width="6" height="11.3611" stroke="black" stroke-width="1" fill="blue" tooltip="enable"><title>(0.747319,553)</title></rect><rect x="120" y="188.947" width="6" height="11.0529" stroke="black" stroke-width="1" fill="blue" tooltip="enable"><title>(0.786651,538)</title></rect><rect x="126" y="191.104" width="6" height="8.89574" stroke="black" stroke-width="1" fill="blue" tooltip="enable"><title>(0.825984,433)</title></rect><rect x="132" y="191.371" width="6" height="8.62866" stroke="black" stroke-width="1" fill="blue" tooltip="enable"><title>(0.865316,420)</title></rect><rect x="138" y="192.09" width="6" height="7.9096" stroke="black" stroke-width="1" fill="blue" tooltip="enable"><title>(0.904649,385)</title></rect><rect x="144" y="192.912" width="6" height="7.08783" stroke="black" stroke-width="1" fill="blue" tooltip="enable"><title>(0.943981,345)</title></rect><rect x="150" y="193.878" width="6" height="6.12224" stroke="black" stroke-width="1" fill="blue" tooltip="enable"><title>(0.983314,298)</title></rect><rect x="156" y="193.22" width="6" height="6.77966" stroke="black" stroke-width="1" fill="blue" tooltip="enable"><title>(1.02265,330)</title></rect><rect x="162" y="194.597" width="6" height="5.40318" stroke="black" stroke-width="1" fill="blue" tooltip="enable"><title>(1.06198,263)</title></rect><rect x="168" y="194.987" width="6" height="5.01284" stroke="black" stroke-width="1" fill="blue" tooltip="enable"><title>(1.10131,244)</title></rect><rect x="174" y="195.172" width="6" height="4.82794" stroke="black" stroke-width="1" fill="blue" tooltip="enable"><title>(1.14064,235)</title></rect><rect x="180" y="195.645" width="6" height="4.35542" stroke="black" stroke-width="1" fill="blue" tooltip="enable"><title>(1.17998,212)</title></rect><rect x="186" y="195.46" width="6" height="4.54032" stroke="black" stroke-width="1" fill="blue" tooltip="enable"><title>(1.21931,221)</title></rect><rect x="192" y="196.405" width="6" height="3.59527" stroke="black" stroke-width="1" fill="blue" tooltip="enable"><title>(1.25864,175)</title></rect><rect x="198" y="196.343" width="6" height="3.65691" stroke="black" stroke-width="1" fill="blue" tooltip="enable"><title>(1.29797,178)</title></rect><rect x="204" y="196.713" width="6" height="3.28711" stroke="black" stroke-width="1" fill="blue" tooltip="enable"><title>(1.33731,160)</title></rect><rect x="210" y="196.672" width="6" height="3.3282" stroke="black" stroke-width="1" fill="blue" tooltip="enable"><title>(1.37664,162)</title></rect><rect x="216" y="196.836" width="6" height="3.16384" stroke="black" stroke-width="1" fill="blue" tooltip="enable"><title>(1.41597,154)</title></rect><rect x="222" y="197.001" width="6" height="2.99949" stroke="black" stroke-width="1" fill="blue" tooltip="enable"><title>(1.4553,146)</title></rect><rect x="228" y="197.432" width="6" height="2.56805" stroke="black" stroke-width="1" fill="blue" tooltip="enable"><title>(1.49464,125)</title></rect><rect x="234" y="197.452" width="6" height="2.54751" stroke="black" stroke-width="1" fill="blue" tooltip="enable"><title>(1.53397,124)</title></rect><rect x="240" y="197.35" width="6" height="2.65023" stroke="black" stroke-width="1" fill="blue" tooltip="enable"><title>(1.5733,129)</title></rect><rect x="246" y="198.007" width="6" height="1.99281" stroke="black" stroke-width="1" fill="blue" tooltip="enable"><title>(1.61263,97)</title></rect><rect x="252" y="197.822" width="6" height="2.17771" stroke="black" stroke-width="1" fill="blue" tooltip="enable"><title>(1.65197,106)</title></rect><rect x="258" y="197.843" width="6" height="2.15716" stroke="black" stroke-width="1" fill="blue" tooltip="enable"><title>(1.6913,105)</title></rect><rect x="264" y="198.295" width="6" height="1.70519" stroke="black" stroke-width="1" fill="blue" tooltip="enable"><title>(1.73063,83)</title></rect><rect x="270" y="198.336" width="6" height="1.6641" stroke="black" stroke-width="1" fill="blue" tooltip="enable"><title>(1.76996,81)</title></rect><rect x="276" y="198.356" width="6" height="1.64355" stroke="black" stroke-width="1" fill="blue" tooltip="enable"><title>(1.8093,80)</title></rect><rect x="282" y="198.808" width="6" height="1.19158" stroke="black" stroke-width="1" fill="blue" tooltip="enable"><title>(1.84863,58)</title></rect><rect x="288" y="198.747" width="6" height="1.25321" stroke="black" stroke-width="1" fill="blue" tooltip="enable"><title>(1.88796,61)</title></rect><rect x="294" y="198.295" width="6" height="1.70519" stroke="black" stroke-width="1" fill="blue" tooltip="enable"><title>(1.9273,83)</title></rect><rect x="300" y="198.891" width="6" height="1.1094" stroke="black" stroke-width="1" fill="blue" tooltip="enable"><title>(1.96663,54)</title></rect><rect x="306" y="199.034" width="6" height="0.965588" stroke="black" stroke-width="1" fill="blue" tooltip="enable"><title>(2.00596,47)</title></rect><rect x="312" y="199.219" width="6" height="0.780688" stroke="black" stroke-width="1" fill="blue" tooltip="enable"><title>(2.04529,38)</title></rect><rect x="318" y="199.117" width="6" height="0.88341" stroke="black" stroke-width="1" fill="blue" tooltip="enable"><title>(2.08463,43)</title></rect><rect x="324" y="199.26" width="6" height="0.739599" stroke="black" stroke-width="1" fill="blue" tooltip="enable"><title>(2.12396,36)</title></rect><rect x="330" y="199.26" width="6" height="0.739599" stroke="black" stroke-width="1" fill="blue" tooltip="enable"><title>(2.16329,36)</title></rect><rect x="336" y="199.322" width="6" height="0.677966" stroke="black" stroke-width="1" fill="blue" tooltip="enable"><title>(2.20262,33)</title></rect><rect x="342" y="199.363" width="6" height="0.636877" stroke="black" stroke-width="1" fill="blue" tooltip="enable"><title>(2.24196,31)</title></rect><rect x="348" y="199.445" width="6" height="0.5547" stroke="black" stroke-width="1" fill="blue" tooltip="enable"><title>(2.28129,27)</title></rect><rect x="354" y="199.322" width="6" height="0.677966" stroke="black" stroke-width="1" fill="blue" tooltip="enable"><title>(2.32062,33)</title></rect><rect x="360" y="199.322" width="6" height="0.677966" stroke="black" stroke-width="1" fill="blue" tooltip="enable"><title>(2.35995,33)</title></rect><rect x="366" y="199.486" width="6" height="0.513611" stroke="black" stroke-width="1" fill="blue" tooltip="enable"><title>(2.39929,25)</title></rect><rect x="372" y="199.486" width="6" height="0.513611" stroke="black" stroke-width="1" fill="blue" tooltip="enable"><title>(2.43862,25)</title></rect><rect x="378" y="199.384" width="6" height="0.616333" stroke="black" stroke-width="1" fill="blue" tooltip="enable"><title>(2.47795,30)</title></rect><rect x="384" y="199.384" width="6" height="0.616333" stroke="black" stroke-width="1" fill="blue" tooltip="enable"><title>(2.51728,30)</title></rect><rect x="390" y="199.527" width="6" height="0.472522" stroke="black" stroke-width="1" fill="blue" tooltip="enable"><title>(2.55662,23)</title></rect><rect x="396" y="199.63" width="6" height="0.3698" stroke="black" stroke-width="1" fill="blue" tooltip="enable"><title>(2.59595,18)</title></rect><rect x="402" y="199.527" width="6" height="0.472522" stroke="black" stroke-width="1" fill="blue" tooltip="enable"><title>(2.63528,23)</title></rect><rect x="408" y="199.651" width="6" height="0.349255" stroke="black" stroke-width="1" fill="blue" tooltip="enable"><title>(2.67461,17)</title></rect><rect x="414" y="199.548" width="6" height="0.451977" stroke="black" stroke-width="1" fill="blue" tooltip="enable"><title>(2.71395,22)</title></rect><rect x="420" y="199.63" width="6" height="0.3698" stroke="black" stroke-width="1" fill="blue" tooltip="enable"><title>(2.75328,18)</title></rect><rect x="426" y="199.651" width="6" height="0.349255" stroke="black" stroke-width="1" fill="blue" tooltip="enable"><title>(2.79261,17)</title></rect><rect x="432" y="199.897" width="6" height="0.102722" stroke="black" stroke-width="1" fill="blue" tooltip="enable"><title>(2.83194,5)</title></rect><rect x="438" y="199.712" width="6" height="0.287622" stroke="black" stroke-width="1" fill="blue" tooltip="enable"><title>(2.87128,14)</title></rect><rect x="444" y="199.795" width="6" height="0.205444" stroke="black" stroke-width="1" fill="blue" tooltip="enable"><title>(2.91061,10)</title></rect><rect x="450" y="199.733" width="6" height="0.267078" stroke="black" stroke-width="1" fill="blue" tooltip="enable"><title>(2.94994,13)</title></rect><rect x="456" y="199.671" width="6" height="0.328711" stroke="black" stroke-width="1" fill="blue" tooltip="enable"><title>(2.98927,16)</title></rect><rect x="462" y="199.733" width="6" height="0.267078" stroke="black" stroke-width="1" fill="blue" tooltip="enable"><title>(3.02861,13)</title></rect><rect x="468" y="199.877" width="6" height="0.123267" stroke="black" stroke-width="1" fill="blue" tooltip="enable"><title>(3.06794,6)</title></rect><rect x="474" y="199.897" width="6" height="0.102722" stroke="black" stroke-width="1" fill="blue" tooltip="enable"><title>(3.10727,5)</title></rect><rect x="480" y="199.856" width="6" height="0.143811" stroke="black" stroke-width="1" fill="blue" tooltip="enable"><title>(3.1466,7)</title></rect><rect x="486" y="199.897" width="6" height="0.102722" stroke="black" stroke-width="1" fill="blue" tooltip="enable"><title>(3.18594,5)</title></rect><rect x="492" y="199.856" width="6" height="0.143811" stroke="black" stroke-width="1" fill="blue" tooltip="enable"><title>(3.22527,7)</title></rect><rect x="498" y="199.877" width="6" height="0.123267" stroke="black" stroke-width="1" fill="blue" tooltip="enable"><title>(3.2646,6)</title></rect><rect x="504" y="200" width="6" height="0" stroke="black" stroke-width="1" fill="blue" tooltip="enable"><title>(3.30393,0)</title></rect><rect x="510" y="199.938" width="6" height="0.0616333" stroke="black" stroke-width="1" fill="blue" tooltip="enable"><title>(3.34327,3)</title></rect><rect x="516" y="199.856" width="6" height="0.143811" stroke="black" stroke-width="1" fill="blue" tooltip="enable"><title>(3.3826,7)</title></rect><rect x="522" y="199.938" width="6" height="0.0616333" stroke="black" stroke-width="1" fill="blue" tooltip="enable"><title>(3.42193,3)</title></rect><rect x="528" y="199.938" width="6" height="0.0616333" stroke="black" stroke-width="1" fill="blue" tooltip="enable"><title>(3.46126,3)</title></rect><rect x="534" y="199.959" width="6" height="0.0410889" stroke="black" stroke-width="1" fill="blue" tooltip="enable"><title>(3.5006,2)</title></rect><rect x="540" y="199.938" width="6" height="0.0616333" stroke="black" stroke-width="1" fill="blue" tooltip="enable"><title>(3.53993,3)</title></rect><rect x="546" y="199.938" width="6" height="0.0616333" stroke="black" stroke-width="1" fill="blue" tooltip="enable"><title>(3.57926,3)</title></rect><rect x="552" y="199.979" width="6" height="0.0205444" stroke="black" stroke-width="1" fill="blue" tooltip="enable"><title>(3.6186,1)</title></rect><rect x="558" y="199.959" width="6" height="0.0410889" stroke="black" stroke-width="1" fill="blue" tooltip="enable"><title>(3.65793,2)</title></rect><rect x="564" y="199.959" width="6" height="0.0410889" stroke="black" stroke-width="1" fill="blue" tooltip="enable"><title>(3.69726,2)</title></rect><rect x="570" y="199.979" width="6" height="0.0205444" stroke="black" stroke-width="1" fill="blue" tooltip="enable"><title>(3.73659,1)</title></rect><rect x="576" y="199.918" width="6" height="0.0821777" stroke="black" stroke-width="1" fill="blue" tooltip="enable"><title>(3.77593,4)</title></rect><rect x="582" y="200" width="6" height="0" stroke="black" stroke-width="1" fill="blue" tooltip="enable"><title>(3.81526,0)</title></rect><rect x="588" y="199.979" width="6" height="0.0205444" stroke="black" stroke-width="1" fill="blue" tooltip="enable"><title>(3.85459,1)</title></rect><rect x="594" y="199.979" width="6" height="0.0205444" stroke="black" stroke-width="1" fill="blue" tooltip="enable"><title>(3.89392,1)</title></rect><text x="30" y="240" font-size="20" fill="black">0</text>
<text x="600" y="240" font-size="20" fill="black">3.93326</text>
<polyline points="0,220,600,220" stroke="black" stroke-width="1" fill="none"/>
<text x="720" y="20" font-size="20" fill="black">9735</text>
<text x="720" y="200" font-size="20" fill="black">0</text>
<polyline points="660,0,660,200" stroke="black" stroke-width="1" fill="none"/>
</svg>